# Blender v2.79 (sub 0) OBJ File: ''
# www.blender.org
mtllib ghost.mtl
o ghost-dark-model_ghost-dark-geometry
v 0.174975 0.105398 0.202790
v 0.173715 0.120355 -0.157995
v 0.251007 0.127996 0.014494
v 0.154707 0.013234 0.169276
v 0.153689 0.025430 -0.118951
v 0.119913 -0.120431 0.114289
v 0.119189 -0.111877 -0.087967
v 0.166137 -0.115330 0.007640
v 0.193741 0.005310 0.043232
v 0.193741 0.005310 0.043232
v 0.219236 0.029293 0.015176
v 0.219236 0.029293 0.015176
v 0.195757 -0.026902 0.013602
v 0.195757 -0.026902 0.013602
v 0.017799 -0.118583 -0.130843
v 0.017799 -0.118583 -0.130843
v 0.018807 -0.130570 0.152441
v 0.018807 -0.130570 0.152441
v 0.006495 0.015806 -0.184036
v 0.006495 0.015806 -0.184036
v 0.007933 -0.001250 0.219069
v 0.007933 -0.001250 0.219069
v 0.195694 0.007881 -0.013037
v 0.195694 0.007881 -0.013037
v -0.174611 0.075968 0.202790
v 0.000428 0.087818 0.270950
v 0.000428 0.087818 0.270950
v -0.175871 0.090914 -0.157995
v -0.253351 0.085519 0.014494
v -0.128986 -0.140184 0.007640
v -0.082562 -0.137476 0.114289
v -0.083276 -0.128922 -0.087967
v -0.001597 0.111864 -0.223825
v -0.001597 0.111864 -0.223825
v -0.140248 0.000671 -0.118951
v -0.139219 -0.011515 0.169276
v -0.205522 -0.006477 0.015176
v -0.205522 -0.006477 0.015176
v -0.178726 -0.023648 -0.013037
v -0.178726 -0.023648 -0.013037
v -0.172984 -0.057949 0.013602
v -0.172984 -0.057949 0.013602
v -0.176375 -0.025863 0.043232
v -0.176375 -0.025863 0.043232
v 0.127974 0.442935 0.184611
v 0.117699 0.438926 -0.166151
v 0.188095 0.450922 0.008847
v 0.184106 0.285371 0.215584
v 0.164563 0.281740 -0.193954
v 0.252791 0.293138 0.008847
v -0.025654 0.242957 -0.273471
v -0.025654 0.242957 -0.273471
v -0.053394 0.399178 0.272220
v -0.053394 0.399178 0.272220
v -0.237209 0.210567 0.215584
v -0.026483 0.247628 0.300107
v -0.026483 0.247628 0.300107
v -0.217613 0.213884 -0.193954
v -0.304372 0.194214 0.008847
v -0.238741 0.377829 0.184611
v -0.054234 0.403890 -0.242015
v -0.054234 0.403890 -0.242015
v -0.227720 0.377588 -0.166151
v -0.297938 0.364615 0.008847
v 0.201697 -0.074837 0.014399
v 0.264966 -0.029851 0.010211
v 0.232293 -0.052806 -0.026377
v 0.234822 -0.051053 0.050988
v 0.254114 -0.032927 0.037123
v 0.252424 -0.034092 -0.014748
v 0.231401 -0.150292 0.013654
v 0.334449 -0.080148 0.008480
v 0.280731 -0.116967 -0.048460
v 0.284604 -0.114322 0.070605
v 0.316449 -0.093467 0.049393
v 0.313846 -0.095241 -0.030554
v 0.263560 -0.218063 0.010705
v 0.372192 -0.170307 0.010705
v 0.317876 -0.194185 -0.045585
v 0.317876 -0.194185 0.066984
v 0.331206 -0.224508 0.010705
v 0.350571 -0.175922 -0.027154
v 0.350571 -0.175922 0.048332
v -0.185905 -0.105936 0.013728
v -0.218505 -0.082173 0.050799
v -0.216637 -0.083265 -0.026598
v -0.237744 -0.063753 0.037259
v -0.236495 -0.064477 -0.014632
v -0.248786 -0.060342 0.010463
v -0.216290 -0.181107 0.012594
v -0.268686 -0.145159 0.070279
v -0.265831 -0.146796 -0.048817
v -0.300520 -0.123831 0.049518
v -0.318740 -0.109998 0.008878
v -0.298599 -0.124934 -0.030460
v -0.290895 -0.249005 0.010390
v -0.355487 -0.227867 0.010390
v -0.331136 -0.205395 0.066669
v -0.331136 -0.205395 -0.045899
v -0.353807 -0.175587 0.048018
v -0.353807 -0.175587 -0.027469
v -0.371367 -0.161795 0.010390
v 0.092089 0.537576 0.027456
v 0.057599 0.484446 0.141872
v 0.047807 0.539592 -0.104015
v -0.081334 0.556532 0.040272
v -0.081334 0.556532 0.040272
v -0.081334 0.556532 0.040272
v -0.081334 0.556532 0.040272
v -0.186954 0.441025 0.141872
v -0.067133 0.476585 0.197017
v -0.067133 0.476585 0.197017
v -0.196747 0.496170 -0.104015
v -0.237628 0.479030 0.027456
v -0.078490 0.540526 -0.146261
v -0.078490 0.540526 -0.146261
v 0.124532 -0.269766 0.045824
v 0.121918 -0.239758 -0.083139
v 0.150362 -0.246224 -0.020111
v 0.063740 -0.293056 0.066564
v 0.063740 -0.293056 0.066564
v -0.026556 -0.297622 -0.028487
v 0.002003 -0.305358 0.040020
v 0.060160 -0.251944 -0.110187
v 0.060160 -0.251944 -0.110187
v -0.000611 -0.275360 -0.088943
v 0.102343 -0.458849 -0.078552
v 0.096655 -0.428778 -0.140887
v 0.118329 -0.442780 -0.109609
v 0.069817 -0.425619 -0.150543
v 0.069817 -0.425619 -0.150543
v 0.077510 -0.466291 -0.066251
v 0.077510 -0.466291 -0.066251
v 0.029198 -0.450159 -0.105023
v 0.050683 -0.463121 -0.075897
v 0.044994 -0.433050 -0.138232
v 0.005078 -0.607145 -0.232033
v 0.005078 -0.607145 -0.232033
vt 0.475723 0.027298
vt 0.426025 0.137711
vt 0.357300 0.106293
vt 0.501144 0.081543
vt 0.495407 0.108139
vt 0.178345 0.654022
vt 0.031357 0.648315
vt 0.046570 0.523804
vt 0.166931 0.540726
vt 0.614517 0.656525
vt 0.385849 0.678452
vt 0.392380 0.547928
vt 0.595429 0.526733
vt 0.180588 0.754059
vt 0.214737 0.863983
vt 0.125473 0.864014
vt 0.057312 0.747513
vt 0.330444 0.074371
vt 0.600922 0.774597
vt 0.769928 0.655258
vt 0.741165 0.782486
vt 0.378708 0.810059
vt 0.559875 0.880951
vt 0.374924 0.928009
vt 0.366547 0.215424
vt 0.350082 0.315918
vt 0.235733 0.290298
vt 0.287994 0.182617
vt 0.635422 0.281372
vt 0.521225 0.308563
vt 0.492218 0.205353
vt 0.568863 0.177399
vt 0.168091 0.258957
vt 0.245956 0.152374
vt 0.753189 0.504578
vt 0.554886 0.422394
vt 0.696838 0.384766
vt 0.093964 0.401199
vt 0.195023 0.431610
vt 0.359375 0.464478
vt 0.389221 0.442337
vt 0.650833 0.899612
vt 0.316895 0.967483
vt 0.423111 0.992386
vt 0.351120 0.415695
vt 0.329376 0.444885
vt 0.942947 0.083496
vt 0.832657 0.016159
vt 0.827362 0.085602
vt 0.921234 0.405563
vt 0.828232 0.408646
vt 0.831787 0.522217
vt 0.897186 0.502655
vt 0.827362 0.085602
vt 0.831787 0.522217
vt 0.828232 0.408646
vt 0.783127 0.428894
vt 0.766708 0.500900
vt 0.774246 0.113876
vt 0.783127 0.428894
vt 0.774246 0.113876
vt 0.984421 0.256973
vt 0.842987 0.254135
vt 0.842987 0.254135
vt 0.767181 0.244751
vt 0.741730 0.404938
vt 0.698349 0.253540
vt 0.767181 0.244751
vt 0.718094 0.079803
vt 0.475723 0.027298
vt 0.357300 0.106293
vt 0.426025 0.137711
vt 0.495407 0.108139
vt 0.501144 0.081543
vt 0.178345 0.654022
vt 0.166931 0.540726
vt 0.046570 0.523804
vt 0.031357 0.648315
vt 0.614517 0.656525
vt 0.595429 0.526733
vt 0.392380 0.547928
vt 0.385849 0.678452
vt 0.180588 0.754059
vt 0.057312 0.747513
vt 0.125473 0.864014
vt 0.214737 0.863983
vt 0.330444 0.074371
vt 0.600922 0.774597
vt 0.741165 0.782486
vt 0.769928 0.655258
vt 0.378708 0.810059
vt 0.374924 0.928009
vt 0.559875 0.880951
vt 0.366547 0.215424
vt 0.287994 0.182617
vt 0.235733 0.290298
vt 0.350082 0.315918
vt 0.635422 0.281372
vt 0.568863 0.177399
vt 0.492218 0.205353
vt 0.521225 0.308563
vt 0.245956 0.152374
vt 0.168091 0.258957
vt 0.753189 0.504578
vt 0.696838 0.384766
vt 0.554886 0.422394
vt 0.195023 0.431610
vt 0.093964 0.401199
vt 0.389221 0.442337
vt 0.359375 0.464478
vt 0.650833 0.899612
vt 0.316895 0.967483
vt 0.423111 0.992386
vt 0.351120 0.415695
vt 0.329376 0.444885
vt 0.942947 0.083496
vt 0.827362 0.085602
vt 0.832657 0.016159
vt 0.921234 0.405563
vt 0.897186 0.502655
vt 0.831787 0.522217
vt 0.828232 0.408646
vt 0.827362 0.085602
vt 0.831787 0.522217
vt 0.828232 0.408646
vt 0.766708 0.500900
vt 0.783127 0.428894
vt 0.774246 0.113876
vt 0.783127 0.428894
vt 0.774246 0.113876
vt 0.984421 0.256973
vt 0.842987 0.254135
vt 0.842987 0.254135
vt 0.767181 0.244751
vt 0.741730 0.404938
vt 0.767181 0.244751
vt 0.698349 0.253540
vt 0.718094 0.079803
vn 0.8482 -0.4144 -0.3299
vn 0.9513 -0.2560 -0.1716
vn 0.7105 -0.5649 0.4195
vn 0.3538 0.2543 -0.9001
vn 0.6483 0.1094 -0.7534
vn 0.7179 0.1415 0.6815
vn 0.3736 0.0782 0.9243
vn 0.3789 -0.2578 0.8888
vn 0.6978 -0.2283 0.6789
vn 0.6813 0.1055 -0.7244
vn 0.9839 0.1751 -0.0351
vn 0.9871 -0.1598 -0.0100
vn 0.6840 -0.2571 -0.6826
vn 0.5424 0.5823 0.6055
vn 0.1765 0.8612 0.4766
vn 0.1576 0.8057 0.5708
vn 0.2996 0.4464 0.8432
vn 0.4854 -0.6459 0.5892
vn 0.5823 0.4980 -0.6426
vn 0.3699 0.0116 -0.9290
vn 0.3005 0.4001 -0.8658
vn 0.8277 0.5599 -0.0365
vn 0.3651 0.8563 -0.3652
vn 0.4284 0.8961 0.1155
vn 0.9921 -0.1193 -0.0380
vn 0.9740 -0.2258 -0.0176
vn 0.6523 -0.3676 0.6629
vn 0.7311 -0.3373 0.5930
vn 0.3948 -0.1894 -0.8990
vn 0.6808 -0.1784 -0.7104
vn 0.7248 0.0420 -0.6876
vn 0.3803 0.1110 -0.9181
vn 0.3654 -0.3882 0.8460
vn 0.4371 -0.4310 0.7894
vn 0.3621 -0.3118 -0.8784
vn 0.6670 -0.3573 -0.6538
vn 0.3985 -0.3132 -0.8620
vn 0.3478 -0.4243 0.8360
vn 0.6666 -0.3953 0.6319
vn 0.9414 -0.3288 0.0749
vn 0.8529 -0.3328 -0.4021
vn 0.1606 0.8468 -0.5070
vn 0.1343 0.8856 0.4447
vn 0.0728 0.9960 -0.0518
vn 0.9454 -0.3235 -0.0387
vn 0.9040 -0.2679 0.3331
vn -0.6511 -0.7590 -0.0070
vn 0.3777 -0.9259 0.0003
vn 0.0812 -0.4592 0.8846
vn -0.9349 -0.3531 0.0363
vn -0.2179 0.0610 0.9741
vn -0.0764 0.2604 0.9625
vn -0.9910 -0.1236 -0.0503
vn 0.0771 -0.4626 -0.8832
vn -0.0768 0.3373 -0.9382
vn -0.3272 0.0475 -0.9438
vn 0.5008 0.5495 0.6687
vn 0.6630 0.7478 0.0350
vn 0.7398 -0.1351 0.6590
vn 0.4296 0.5424 -0.7220
vn 0.7380 -0.1414 -0.6598
vn -0.9105 -0.4116 0.0403
vn -0.0992 0.0384 0.9943
vn -0.1874 0.0110 -0.9822
vn 0.5717 0.4442 0.6898
vn 0.7053 0.7072 -0.0498
vn 0.7850 0.6183 -0.0373
vn 0.5117 0.4281 -0.7449
vn 0.9971 -0.0761 0.0054
vn -0.9985 0.0335 0.0422
vn -0.5602 -0.5532 0.6165
vn -0.9831 -0.1690 0.0701
vn -0.7325 0.2519 -0.6324
vn -0.4958 0.3157 -0.8090
vn -0.7235 -0.1278 0.6783
vn -0.6081 -0.4205 0.6734
vn -0.3127 -0.3625 0.8779
vn -0.3784 -0.0511 0.9242
vn -0.6710 -0.1647 -0.7229
vn -0.5846 -0.4513 -0.6742
vn -0.8932 -0.4492 -0.0170
vn -0.9776 -0.2065 -0.0401
vn -0.7097 0.3600 0.6055
vn -0.4349 0.3159 0.8432
vn -0.4253 0.7023 0.5708
vn -0.4621 0.7478 0.4766
vn -0.3305 -0.6128 0.7178
vn -0.7181 0.2671 -0.6425
vn -0.4199 0.2721 -0.8658
vn -0.3617 -0.1334 -0.9227
vn -0.9699 0.2407 -0.0365
vn -0.7107 0.6939 0.1155
vn -0.6375 0.6783 -0.3652
vn -0.8949 -0.4425 -0.0569
vn -0.5429 -0.5822 0.6052
vn -0.5697 -0.5369 0.6222
vn -0.8635 -0.5036 -0.0268
vn -0.3338 -0.2906 -0.8967
vn -0.3186 -0.0473 -0.9467
vn -0.6367 -0.1684 -0.7525
vn -0.6239 -0.3884 -0.6782
vn -0.2384 -0.5543 0.7974
vn -0.2784 -0.4792 0.8323
vn -0.2976 -0.3995 -0.8670
vn -0.3405 -0.3754 -0.8620
vn -0.5978 -0.4639 -0.6538
vn -0.5911 -0.5012 0.6319
vn -0.2720 -0.4765 0.8360
vn -0.7853 -0.4707 -0.4021
vn -0.8731 -0.4817 0.0748
vn -0.4423 0.7397 -0.5070
vn -0.4310 0.7852 0.4447
vn -0.4112 0.9101 -0.0518
vn -0.8780 -0.4770 -0.0388
vn -0.8465 -0.4152 0.3331
vn 0.2996 -0.9540 -0.0058
vn -0.2576 -0.3908 0.8837
vn -0.7164 -0.6977 0.0003
vn 0.9239 -0.3819 0.0254
vn 0.9633 -0.2595 -0.0682
vn 0.1032 0.2074 0.9728
vn 0.2254 0.0501 0.9730
vn -0.2518 -0.3940 -0.8839
vn 0.1045 0.2928 -0.9504
vn 0.3176 0.0529 -0.9467
vn -0.6468 0.7615 0.0406
vn -0.4883 0.5517 0.6761
vn -0.7345 0.1666 0.6578
vn -0.4278 0.5563 -0.7124
vn -0.7345 0.1616 -0.6591
vn 0.8159 -0.5778 0.0223
vn 0.1549 -0.0263 0.9876
vn 0.2128 -0.0548 -0.9755
vn -0.4582 0.5399 0.7060
vn -0.6964 0.7166 -0.0376
vn -0.4154 0.5241 -0.7434
vn -0.6455 0.7633 -0.0265
vn -0.9465 0.3226 0.0050
usemtl ghost-dark-material
s 1
f 137/1/1 129/2/2 127/3/3
f 137/1/1 130/4/4 128/5/5
f 48/6/6 56/7/7 26/8/8
f 26/8/8 1/9/9 48/6/6
f 49/10/10 50/11/11 3/12/12
f 3/12/12 2/13/13 49/10/10
f 45/14/14 104/15/15 111/16/16
f 111/16/16 53/17/17 45/14/14
f 137/1/1 127/3/3 132/18/18
f 46/19/19 49/10/10 51/20/20
f 51/20/20 61/21/21 46/19/19
f 137/1/1 128/5/5 129/2/2
f 45/14/14 48/6/6 50/11/11
f 50/11/11 47/22/22 45/14/14
f 46/19/19 105/23/23 103/24/24
f 103/24/24 47/22/22 46/19/19
f 119/25/25 8/26/26 6/27/27
f 6/27/27 117/28/28 119/25/25
f 15/29/29 7/30/30 118/31/31
f 118/31/31 124/32/32 15/29/29
f 117/28/28 6/27/27 17/33/33
f 17/33/33 120/34/34 117/28/28
f 7/30/30 8/26/26 119/25/25
f 119/25/25 118/31/31 7/30/30
f 33/35/35 2/13/13 5/36/36
f 5/36/36 19/37/37 33/35/35
f 1/9/9 26/8/8 21/38/38
f 21/38/38 4/39/39 1/9/9
f 2/13/13 11/40/40 23/41/41
f 23/41/41 5/36/36 2/13/13
f 45/14/14 47/22/22 103/24/24
f 103/24/24 104/15/15 45/14/14
f 46/19/19 61/21/21 115/42/42
f 115/42/42 105/23/23 46/19/19
f 104/15/15 107/43/43 111/16/16
f 105/23/23 106/44/44 103/24/24
f 103/24/24 107/43/43 104/15/15
f 115/42/42 106/44/44 105/23/23
f 45/14/14 53/17/17 56/7/7
f 56/7/7 48/6/6 45/14/14
f 46/19/19 47/22/22 50/11/11
f 50/11/11 49/10/10 46/19/19
f 2/13/13 33/35/35 51/20/20
f 51/20/20 49/10/10 2/13/13
f 1/9/9 3/12/12 50/11/11
f 50/11/11 48/6/6 1/9/9
f 8/26/26 13/45/45 6/27/27
f 19/37/37 5/36/36 7/30/30
f 7/30/30 15/29/29 19/37/37
f 6/27/27 4/39/39 21/38/38
f 21/38/38 17/33/33 6/27/27
f 7/30/30 13/45/45 8/26/26
f 119/25/25 117/28/28 127/3/3
f 127/3/3 129/2/2 119/25/25
f 124/32/32 118/31/31 128/5/5
f 128/5/5 130/4/4 124/32/32
f 120/34/34 132/18/18 127/3/3
f 127/3/3 117/28/28 120/34/34
f 119/25/25 129/2/2 128/5/5
f 128/5/5 118/31/31 119/25/25
f 3/12/12 1/9/9 9/46/46
f 9/46/46 11/40/40 3/12/12
f 77/47/47 81/48/48 80/49/49
f 65/50/50 68/51/51 10/52/52
f 10/52/52 14/53/53 65/50/50
f 77/47/47 79/54/54 81/48/48
f 24/55/55 67/56/56 65/50/50
f 65/50/50 14/53/53 24/55/55
f 10/52/52 69/57/57 12/58/58
f 81/48/48 83/59/59 80/49/49
f 12/58/58 70/60/60 24/55/55
f 79/54/54 82/61/61 81/48/48
f 71/62/62 74/63/63 68/51/51
f 68/51/51 65/50/50 71/62/62
f 73/64/64 71/62/62 65/50/50
f 65/50/50 67/56/56 73/64/64
f 74/63/63 75/65/65 69/57/57
f 69/57/57 68/51/51 74/63/63
f 66/66/66 72/67/67 76/68/68
f 76/68/68 70/60/60 66/66/66
f 77/47/47 80/49/49 74/63/63
f 74/63/63 71/62/62 77/47/47
f 79/54/54 77/47/47 71/62/62
f 71/62/62 73/64/64 79/54/54
f 80/49/49 83/59/59 75/65/65
f 75/65/65 74/63/63 80/49/49
f 72/67/67 78/69/69 82/61/61
f 82/61/61 76/68/68 72/67/67
f 1/9/9 4/39/39 9/46/46
f 2/13/13 3/12/12 11/40/40
f 13/45/45 9/46/46 4/39/39
f 4/39/39 6/27/27 13/45/45
f 5/36/36 23/41/41 13/45/45
f 13/45/45 7/30/30 5/36/36
f 75/65/65 72/67/67 66/66/66
f 66/66/66 69/57/57 75/65/65
f 73/64/64 67/56/56 70/60/60
f 70/60/60 76/68/68 73/64/64
f 83/59/59 78/69/69 72/67/67
f 72/67/67 75/65/65 83/59/59
f 79/54/54 73/64/64 76/68/68
f 76/68/68 82/61/61 79/54/54
f 81/48/48 78/69/69 83/59/59
f 82/61/61 78/69/69 81/48/48
f 69/57/57 66/66/66 12/58/58
f 12/58/58 66/66/66 70/60/60
f 10/52/52 68/51/51 69/57/57
f 70/60/60 67/56/56 24/55/55
f 138/70/70 135/71/71 134/72/72
f 138/70/70 136/73/73 131/74/74
f 55/75/75 25/76/76 27/77/77
f 27/77/77 57/78/78 55/75/75
f 58/79/79 28/80/80 29/81/81
f 29/81/81 59/82/82 58/79/79
f 60/83/83 54/84/84 112/85/85
f 112/85/85 110/86/86 60/83/83
f 138/70/70 133/87/87 135/71/71
f 63/88/88 62/89/89 52/90/90
f 52/90/90 58/79/79 63/88/88
f 138/70/70 134/72/72 136/73/73
f 60/83/83 64/91/91 59/82/82
f 59/82/82 55/75/75 60/83/83
f 63/88/88 64/91/91 114/92/92
f 114/92/92 113/93/93 63/88/88
f 122/94/94 123/95/95 31/96/96
f 31/96/96 30/97/97 122/94/94
f 16/98/98 125/99/99 126/100/100
f 126/100/100 32/101/101 16/98/98
f 123/95/95 121/102/102 18/103/103
f 18/103/103 31/96/96 123/95/95
f 32/101/101 126/100/100 122/94/94
f 122/94/94 30/97/97 32/101/101
f 34/104/104 20/105/105 35/106/106
f 35/106/106 28/80/80 34/104/104
f 25/76/76 36/107/107 22/108/108
f 22/108/108 27/77/77 25/76/76
f 28/80/80 35/106/106 39/109/109
f 39/109/109 37/110/110 28/80/80
f 60/83/83 110/86/86 114/92/92
f 114/92/92 64/91/91 60/83/83
f 63/88/88 113/93/93 116/111/111
f 116/111/111 62/89/89 63/88/88
f 110/86/86 112/85/85 108/112/112
f 113/93/93 114/92/92 109/113/113
f 114/92/92 110/86/86 108/112/112
f 116/111/111 113/93/93 109/113/113
f 60/83/83 55/75/75 57/78/78
f 57/78/78 54/84/84 60/83/83
f 63/88/88 58/79/79 59/82/82
f 59/82/82 64/91/91 63/88/88
f 28/80/80 58/79/79 52/90/90
f 52/90/90 34/104/104 28/80/80
f 25/76/76 55/75/75 59/82/82
f 59/82/82 29/81/81 25/76/76
f 30/97/97 31/96/96 41/114/114
f 20/105/105 16/98/98 32/101/101
f 32/101/101 35/106/106 20/105/105
f 31/96/96 18/103/103 22/108/108
f 22/108/108 36/107/107 31/96/96
f 32/101/101 30/97/97 41/114/114
f 122/94/94 134/72/72 135/71/71
f 135/71/71 123/95/95 122/94/94
f 125/99/99 131/74/74 136/73/73
f 136/73/73 126/100/100 125/99/99
f 121/102/102 123/95/95 135/71/71
f 135/71/71 133/87/87 121/102/102
f 122/94/94 126/100/100 136/73/73
f 136/73/73 134/72/72 122/94/94
f 29/81/81 37/110/110 43/115/115
f 43/115/115 25/76/76 29/81/81
f 96/116/116 98/117/117 97/118/118
f 84/119/119 42/120/120 44/121/121
f 44/121/121 85/122/122 84/119/119
f 96/116/116 97/118/118 99/123/123
f 40/124/124 42/120/120 84/119/119
f 84/119/119 86/125/125 40/124/124
f 44/121/121 38/126/126 87/127/127
f 97/118/118 98/117/117 100/128/128
f 38/126/126 40/124/124 88/129/129
f 99/123/123 97/118/118 101/130/130
f 90/131/131 84/119/119 85/122/122
f 85/122/122 91/132/132 90/131/131
f 92/133/133 86/125/125 84/119/119
f 84/119/119 90/131/131 92/133/133
f 91/132/132 85/122/122 87/127/127
f 87/127/127 93/134/134 91/132/132
f 89/135/135 88/129/129 95/136/136
f 95/136/136 94/137/137 89/135/135
f 96/116/116 90/131/131 91/132/132
f 91/132/132 98/117/117 96/116/116
f 99/123/123 92/133/133 90/131/131
f 90/131/131 96/116/116 99/123/123
f 98/117/117 91/132/132 93/134/134
f 93/134/134 100/128/128 98/117/117
f 94/137/137 95/136/136 101/130/130
f 101/130/130 102/138/138 94/137/137
f 25/76/76 43/115/115 36/107/107
f 28/80/80 37/110/110 29/81/81
f 41/114/114 31/96/96 36/107/107
f 36/107/107 43/115/115 41/114/114
f 35/106/106 32/101/101 41/114/114
f 41/114/114 39/109/109 35/106/106
f 93/134/134 87/127/127 89/135/135
f 89/135/135 94/137/137 93/134/134
f 92/133/133 95/136/136 88/129/129
f 88/129/129 86/125/125 92/133/133
f 100/128/128 93/134/134 94/137/137
f 94/137/137 102/138/138 100/128/128
f 99/123/123 101/130/130 95/136/136
f 95/136/136 92/133/133 99/123/123
f 97/118/118 100/128/128 102/138/138
f 101/130/130 97/118/118 102/138/138
f 87/127/127 38/126/126 89/135/135
f 38/126/126 88/129/129 89/135/135
f 44/121/121 87/127/127 85/122/122
f 88/129/129 40/124/124 86/125/125
