# This file uses centimeters as units for non-parametric coordinates.

mtllib sign.mtl
g default
v 0.082749 1.042046 0.000000
v -0.000002 1.042046 -0.082751
v -0.000002 1.042046 0.000000
v 0.082749 1.042046 -0.082751
v 0.082749 0.000000 -0.082751
v 0.082749 1.042046 0.000000
v 0.082749 0.000000 0.000000
v 0.082749 1.042046 -0.082751
v 0.082749 1.042046 0.000000
v -0.000002 0.000000 0.000000
v 0.082749 0.000000 0.000000
v -0.000002 1.042046 0.000000
v -0.000002 1.042046 -0.082751
v 0.082749 0.000000 -0.082751
v -0.000002 0.000000 -0.082751
v 0.082749 1.042046 -0.082751
v -0.000002 1.042046 -0.082751
v -0.000002 0.000000 0.000000
v -0.000002 1.042046 0.000000
v -0.000002 0.000000 -0.082751
v 0.082749 0.000000 0.000000
v -0.000002 0.000000 -0.082751
v -0.000002 0.000000 0.000000
v 0.082749 0.000000 -0.082751
v -0.243062 0.722070 0.028618
v -0.317309 0.708324 -0.014290
v -0.317309 0.708324 0.028618
v -0.243062 0.722070 -0.014290
v -0.243062 0.722070 -0.014290
v -0.318250 0.722481 0.028618
v -0.318250 0.722481 -0.014290
v -0.243062 0.722070 0.028618
v 0.334097 0.692145 -0.014290
v 0.082749 0.675451 0.000000
v 0.082749 0.675451 -0.014290
v 0.055939 0.673670 0.000000
v 0.334097 0.692145 0.028618
v 0.055939 0.673670 0.028618
v -0.334300 0.964125 -0.014290
v -0.329165 0.886818 0.028618
v -0.334300 0.964125 0.028618
v -0.329165 0.886818 -0.014290
v 0.500314 0.838336 0.028618
v 0.283597 1.005165 -0.014290
v 0.283597 1.005165 0.028618
v 0.500314 0.838336 -0.014290
v -0.317309 0.708324 -0.014290
v -0.000002 0.669954 -0.014290
v -0.313378 0.649140 -0.014290
v -0.243062 0.722070 -0.014290
v -0.000002 0.986329 -0.014290
v -0.318250 0.722481 -0.014290
v -0.252550 0.864912 -0.014290
v -0.327380 0.859941 -0.014290
v -0.329165 0.886818 -0.014290
v -0.334300 0.964125 -0.014290
v 0.043999 0.672877 0.028618
v 0.054521 0.695023 0.000000
v 0.054521 0.695023 0.028618
v 0.043999 0.672877 0.000000
v -0.252550 0.864912 -0.014290
v -0.329165 0.886818 0.028618
v -0.329165 0.886818 -0.014290
v -0.252550 0.864912 0.028618
v 0.334097 0.692145 0.028618
v 0.054521 0.695023 0.028618
v 0.055939 0.673670 0.028618
v 0.500314 0.838336 0.028618
v -0.317309 0.708324 0.028618
v -0.243062 0.722070 0.028618
v -0.318250 0.722481 0.028618
v -0.327380 0.859941 0.028618
v -0.252550 0.864912 0.028618
v 0.283597 1.005165 0.028618
v -0.329165 0.886818 0.028618
v -0.334300 0.964125 0.028618
v 0.043999 0.672877 0.028618
v -0.313378 0.649140 0.028618
v 0.500314 0.838336 -0.014290
v 0.334097 0.692145 0.028618
v 0.334097 0.692145 -0.014290
v 0.500314 0.838336 0.028618
v -0.327380 0.859941 0.028618
v -0.318250 0.722481 -0.014290
v -0.318250 0.722481 0.028618
v -0.327380 0.859941 -0.014290
v 0.082749 0.991825 -0.014290
v 0.334097 0.692145 -0.014290
v 0.082749 0.675451 -0.014290
v 0.500314 0.838336 -0.014290
v 0.283597 1.005165 -0.014290
v -0.317309 0.708324 -0.014290
v -0.313378 0.649140 0.028618
v -0.317309 0.708324 0.028618
v -0.313378 0.649140 -0.014290
v 0.283597 1.005165 0.028618
v -0.334300 0.964125 -0.014290
v -0.334300 0.964125 0.028618
v -0.000002 0.986329 0.000000
v -0.000002 0.986329 -0.014290
v 0.082749 0.991825 0.000000
v 0.082749 0.991825 -0.014290
v 0.283597 1.005165 -0.014290
v -0.252550 0.864912 0.028618
v -0.327380 0.859941 -0.014290
v -0.327380 0.859941 0.028618
v -0.252550 0.864912 -0.014290
v -0.000002 0.669954 -0.014290
v -0.313378 0.649140 0.028618
v -0.313378 0.649140 -0.014290
v -0.000002 0.669954 0.000000
v 0.043999 0.672877 0.028618
v 0.043999 0.672877 0.000000
v 0.054521 0.695023 0.000000
v 0.055939 0.673670 0.028618
v 0.054521 0.695023 0.028618
v 0.055939 0.673670 0.000000
vt 1.062992 0.000000
vt 0.000000 1.062992
vt 0.000000 0.000000
vt 1.062992 1.062992
vt 0.000000 13.385827
vt 1.062992 13.385827
vt -1.062992 0.000000
vt -1.062992 13.385827
vt 1.062992 0.000000
vt 0.000000 0.000000
vt 1.062992 0.000000
vt 1.062992 13.385827
vt 0.000000 0.000000
vt 1.062992 0.000000
vt 0.000000 0.000000
vt 1.062992 13.385827
vt 0.000000 13.385827
vt 0.000000 13.385827
vt 0.000000 0.000000
vt 0.000000 13.385827
vt -1.062992 13.385827
vt 0.000000 0.000000
vt 0.000000 13.385827
vt 0.000000 0.000000
vt -1.062992 13.385827
vt -1.062992 0.000000
vt 1.062992 0.000000
vt 0.000000 1.062992
vt 0.000000 0.000000
vt 0.000000 1.062992
vt 1.062992 0.000000
vt 1.062992 1.062992
vt 0.589182 -2.214248
vt -0.294207 -3.768836
vt 0.589182 -3.768836
vt -0.294207 -2.214248
vt -0.294207 5.085196
vt 0.589182 6.633189
vt -0.294207 6.633189
vt 0.589182 5.085196
vt 0.294207 7.807744
vt 0.000000 2.621554
vt 0.294207 2.621554
vt 0.000000 2.068371
vt -0.589182 7.807744
vt -0.589182 2.068371
vt -0.294207 20.261980
vt 0.589182 18.666889
vt 0.589182 20.261980
vt -0.294207 18.666889
vt -0.589182 2.366196
vt 0.294207 7.996887
vt -0.589182 7.996887
vt 0.294207 2.366196
vt 6.532760 14.583049
vt 0.000000 13.793086
vt 6.451828 13.364556
vt 5.004149 14.866054
vt 0.000000 20.306625
vt 6.552118 14.874500
vt 5.199479 17.806881
vt 6.740090 17.704554
vt 6.776844 18.257902
vt 6.882556 19.849487
vt -0.589182 12.901529
vt 0.000000 13.406322
vt -0.589182 13.406322
vt 0.000000 12.901529
vt -0.294207 9.894536
vt 0.589182 11.535115
vt -0.294207 11.535115
vt 0.589182 9.894536
vt 6.878466 14.249953
vt 1.122513 14.309203
vt 1.151712 13.869583
vt 10.300543 17.259729
vt -6.532760 14.583049
vt -5.004149 14.866054
vt -6.552118 14.874500
vt -6.740090 17.704554
vt -5.199479 17.806881
vt 5.838762 20.694435
vt -6.776844 18.257902
vt -6.882556 19.849487
vt 0.905885 13.853255
vt -6.451828 13.364556
vt 0.294207 19.133343
vt -0.589182 14.576001
vt 0.294207 14.576001
vt -0.589182 19.133343
vt 0.589182 18.112320
vt -0.294207 15.276032
vt 0.589182 15.276032
vt -0.294207 18.112320
vt -1.703679 20.419785
vt -6.878466 14.249953
vt -1.703679 13.906244
vt -10.300543 17.259729
vt -5.838762 20.694435
vt -0.294207 14.983939
vt 0.589182 13.762762
vt 0.589182 14.983939
vt -0.294207 13.762762
vt 0.589182 7.197426
vt -0.294207 -5.551922
vt 0.589182 -5.551922
vt 0.000000 1.345799
vt -0.294207 1.345799
vt 0.000000 3.053232
vt -0.294207 3.053232
vt -0.294207 7.197426
vt 0.589182 -4.007916
vt -0.294207 -5.551922
vt 0.589182 -5.551922
vt -0.294207 -5.551922
vt -0.294207 -4.007916
vt 0.294207 0.914122
vt -0.589182 -5.551922
vt 0.294207 -5.551922
vt 0.000000 0.914122
vt -0.589182 1.822002
vt 0.000000 1.822002
vt -0.000000 14.203351
vt 0.589182 13.762762
vt 0.589182 14.203351
vt 0.589182 13.762762
vt -0.000000 13.762762
vn 0.000000 1.000000 0.000000
vn 0.000000 1.000000 0.000000
vn 0.000000 1.000000 0.000000
vn 0.000000 1.000000 0.000000
vn 0.000000 1.000000 0.000000
vn 0.000000 1.000000 0.000000
vn 1.000000 0.000000 0.000000
vn 1.000000 0.000000 0.000000
vn 1.000000 0.000000 0.000000
vn 1.000000 0.000000 0.000000
vn 1.000000 0.000000 0.000000
vn 1.000000 0.000000 0.000000
vn 0.000000 0.000000 1.000000
vn 0.000000 0.000000 1.000000
vn 0.000000 0.000000 1.000000
vn 0.000000 0.000000 1.000000
vn 0.000000 0.000000 1.000000
vn 0.000000 0.000000 1.000000
vn 0.000000 0.000000 -1.000000
vn 0.000000 0.000000 -1.000000
vn 0.000000 0.000000 -1.000000
vn 0.000000 0.000000 -1.000000
vn 0.000000 0.000000 -1.000000
vn 0.000000 0.000000 -1.000000
vn -1.000000 0.000000 0.000000
vn -1.000000 0.000000 0.000000
vn -1.000000 0.000000 0.000000
vn -1.000000 0.000000 0.000000
vn -1.000000 0.000000 0.000000
vn -1.000000 0.000000 0.000000
vn 0.000000 1.000000 0.000000
vn 0.000000 1.000000 0.000000
vn 0.000000 1.000000 0.000000
vn 0.000000 1.000000 0.000000
vn 0.000000 1.000000 0.000000
vn 0.000000 1.000000 0.000000
vn -0.182044 0.983290 -0.000000
vn -0.182044 0.983290 -0.000000
vn -0.182044 0.983290 -0.000000
vn -0.182044 0.983290 -0.000000
vn -0.182044 0.983290 -0.000000
vn -0.182044 0.983290 -0.000000
vn -0.005457 -0.999985 0.000000
vn -0.005457 -0.999985 0.000000
vn -0.005457 -0.999985 0.000000
vn -0.005457 -0.999985 0.000000
vn -0.005457 -0.999985 0.000000
vn -0.005457 -0.999985 0.000000
vn 0.066274 -0.997801 0.000000
vn 0.066274 -0.997801 0.000000
vn 0.066274 -0.997801 0.000000
vn 0.066274 -0.997801 0.000000
vn 0.066274 -0.997801 0.000000
vn 0.066274 -0.997801 0.000000
vn 0.066274 -0.997801 0.000000
vn 0.066274 -0.997801 0.000000
vn 0.066274 -0.997801 0.000000
vn 0.066274 -0.997801 0.000000
vn 0.066274 -0.997801 0.000000
vn 0.066274 -0.997801 0.000000
vn -0.997801 -0.066274 -0.000000
vn -0.997801 -0.066274 -0.000000
vn -0.997801 -0.066274 -0.000000
vn -0.997801 -0.066274 -0.000000
vn -0.997801 -0.066274 -0.000000
vn -0.997801 -0.066274 -0.000000
vn 0.609997 0.792404 -0.000000
vn 0.609997 0.792404 -0.000000
vn 0.609997 0.792404 -0.000000
vn 0.609997 0.792404 -0.000000
vn 0.609997 0.792404 -0.000000
vn 0.609997 0.792404 -0.000000
vn 0.000000 -0.000000 -1.000000
vn 0.000000 -0.000000 -1.000000
vn 0.000000 -0.000000 -1.000000
vn 0.000000 -0.000000 -1.000000
vn 0.000000 -0.000000 -1.000000
vn 0.000000 -0.000000 -1.000000
vn 0.000000 -0.000000 -1.000000
vn 0.000000 -0.000000 -1.000000
vn 0.000000 -0.000000 -1.000000
vn 0.000000 -0.000000 -1.000000
vn 0.000000 -0.000000 -1.000000
vn 0.000000 -0.000000 -1.000000
vn 0.000000 -0.000000 -1.000000
vn 0.000000 -0.000000 -1.000000
vn 0.000000 -0.000000 -1.000000
vn 0.000000 -0.000000 -1.000000
vn 0.000000 -0.000000 -1.000000
vn 0.000000 -0.000000 -1.000000
vn 0.000000 -0.000000 -1.000000
vn 0.000000 -0.000000 -1.000000
vn 0.000000 -0.000000 -1.000000
vn 0.000000 -0.000000 -1.000000
vn 0.000000 -0.000000 -1.000000
vn 0.000000 -0.000000 -1.000000
vn 0.903237 -0.429142 0.000000
vn 0.903237 -0.429142 0.000000
vn 0.903237 -0.429142 0.000000
vn 0.903237 -0.429142 0.000000
vn 0.903237 -0.429142 0.000000
vn 0.903237 -0.429142 0.000000
vn -0.274916 -0.961468 0.000000
vn -0.274916 -0.961468 0.000000
vn -0.274916 -0.961468 0.000000
vn -0.274916 -0.961468 0.000000
vn -0.274916 -0.961468 0.000000
vn -0.274916 -0.961468 0.000000
vn -0.000000 0.000000 1.000000
vn -0.000000 0.000000 1.000000
vn -0.000000 0.000000 1.000000
vn -0.000000 0.000000 1.000000
vn -0.000000 0.000000 1.000000
vn -0.000000 0.000000 1.000000
vn -0.000000 0.000000 1.000000
vn -0.000000 0.000000 1.000000
vn -0.000000 0.000000 1.000000
vn -0.000000 0.000000 1.000000
vn -0.000000 0.000000 1.000000
vn -0.000000 0.000000 1.000000
vn -0.000000 0.000000 1.000000
vn -0.000000 0.000000 1.000000
vn -0.000000 0.000000 1.000000
vn -0.000000 0.000000 1.000000
vn -0.000000 0.000000 1.000000
vn -0.000000 0.000000 1.000000
vn -0.000000 0.000000 1.000000
vn -0.000000 0.000000 1.000000
vn -0.000000 0.000000 1.000000
vn -0.000000 0.000000 1.000000
vn -0.000000 0.000000 1.000000
vn -0.000000 0.000000 1.000000
vn -0.000000 0.000000 1.000000
vn -0.000000 0.000000 1.000000
vn -0.000000 0.000000 1.000000
vn -0.000000 0.000000 1.000000
vn -0.000000 0.000000 1.000000
vn -0.000000 0.000000 1.000000
vn -0.000000 0.000000 1.000000
vn -0.000000 0.000000 1.000000
vn -0.000000 0.000000 1.000000
vn -0.000000 0.000000 1.000000
vn -0.000000 0.000000 1.000000
vn -0.000000 0.000000 1.000000
vn 0.660424 -0.750893 0.000000
vn 0.660424 -0.750893 0.000000
vn 0.660424 -0.750893 0.000000
vn 0.660424 -0.750893 0.000000
vn 0.660424 -0.750893 0.000000
vn 0.660424 -0.750893 0.000000
vn -0.997801 -0.066274 0.000000
vn -0.997801 -0.066274 0.000000
vn -0.997801 -0.066274 0.000000
vn -0.997801 -0.066274 0.000000
vn -0.997801 -0.066274 0.000000
vn -0.997801 -0.066274 0.000000
vn -0.000000 -0.000000 -1.000000
vn -0.000000 -0.000000 -1.000000
vn -0.000000 -0.000000 -1.000000
vn -0.000000 -0.000000 -1.000000
vn -0.000000 -0.000000 -1.000000
vn -0.000000 -0.000000 -1.000000
vn -0.000000 -0.000000 -1.000000
vn -0.000000 -0.000000 -1.000000
vn -0.000000 -0.000000 -1.000000
vn -0.997801 -0.066274 0.000000
vn -0.997801 -0.066274 0.000000
vn -0.997801 -0.066274 0.000000
vn -0.997801 -0.066274 0.000000
vn -0.997801 -0.066274 0.000000
vn -0.997801 -0.066274 0.000000
vn -0.066274 0.997801 0.000000
vn -0.066274 0.997801 0.000000
vn -0.066274 0.997801 0.000000
vn -0.066274 0.997801 0.000000
vn -0.066274 0.997801 0.000000
vn -0.066274 0.997801 0.000000
vn -0.066274 0.997801 0.000000
vn -0.066274 0.997801 0.000000
vn -0.066274 0.997801 0.000000
vn -0.066274 0.997801 0.000000
vn -0.066274 0.997801 0.000000
vn -0.066274 0.997801 0.000000
vn -0.066274 0.997801 0.000000
vn -0.066274 0.997801 0.000000
vn -0.066274 0.997801 0.000000
vn -0.066274 0.997801 0.000000
vn -0.066274 0.997801 0.000000
vn -0.066274 0.997801 0.000000
vn -0.066274 0.997801 -0.000000
vn -0.066274 0.997801 -0.000000
vn -0.066274 0.997801 -0.000000
vn -0.066274 0.997801 -0.000000
vn -0.066274 0.997801 -0.000000
vn -0.066274 0.997801 -0.000000
vn 0.066274 -0.997801 0.000000
vn 0.066274 -0.997801 0.000000
vn 0.066274 -0.997801 0.000000
vn 0.066274 -0.997801 0.000000
vn 0.066274 -0.997801 0.000000
vn 0.066274 -0.997801 0.000000
vn 0.066274 -0.997801 0.000000
vn 0.066274 -0.997801 0.000000
vn 0.066274 -0.997801 0.000000
vn 0.066274 -0.997801 0.000000
vn 0.066274 -0.997801 0.000000
vn 0.066274 -0.997801 0.000000
vn -0.997801 -0.066274 -0.000000
vn -0.997801 -0.066274 -0.000000
vn -0.997801 -0.066274 -0.000000
vn -0.997801 -0.066274 -0.000000
vn -0.997801 -0.066274 -0.000000
vn -0.997801 -0.066274 -0.000000
s off
g Sign_Wooden_Blank_01_Sign_Wooden_Blank_01
usemtl Sign_Wooden_Blank_01SG
f 1/1/1 2/2/2 3/3/3
f 2/2/4 1/1/5 4/4/6
f 5/9/7 6/5/8 7/10/9
f 6/5/10 5/11/11 8/6/12
f 9/12/13 10/13/14 11/14/15
f 10/15/16 9/16/17 12/17/18
f 13/18/19 14/7/20 15/19/21
f 14/7/22 13/20/23 16/8/24
f 17/21/25 18/22/26 19/23/27
f 18/24/28 17/25/29 20/26/30
usemtl Sign_Wooden_Blank_01SG1
f 21/27/31 22/28/32 23/29/33
f 22/30/34 21/31/35 24/32/36
usemtl Sign_Wooden_Blank_01SG
f 25/33/37 26/34/38 27/35/39
f 26/34/40 25/33/41 28/36/42
f 29/37/43 30/38/44 31/39/45
f 30/38/46 29/37/47 32/40/48
f 33/41/49 34/42/50 35/43/51
f 36/44/52 37/45/53 38/46/54
f 37/45/55 36/44/56 34/42/57
f 37/45/58 34/42/59 33/41/60
f 39/47/61 40/48/62 41/49/63
f 40/48/64 39/47/65 42/50/66
f 43/51/67 44/52/68 45/53/69
f 44/52/70 43/51/71 46/54/72
f 47/55/73 48/56/74 49/57/75
f 48/56/76 47/55/77 50/58/78
f 48/56/79 50/58/80 51/59/81
f 51/59/82 50/58/83 52/60/84
f 51/59/85 52/60/86 53/61/87
f 53/61/88 52/60/89 54/62/90
f 51/59/91 53/61/92 55/63/93
f 51/59/94 55/63/95 56/64/96
f 57/65/97 58/66/98 59/67/99
f 58/66/100 57/65/101 60/68/102
f 61/69/103 62/70/104 63/71/105
f 62/70/106 61/69/107 64/72/108
f 65/73/109 66/74/110 67/75/111
f 66/74/112 65/73/113 68/76/114
f 66/74/115 68/76/116 69/77/117
f 69/77/118 68/76/119 70/78/120
f 70/78/121 68/76/122 71/79/123
f 71/79/124 68/76/125 72/80/126
f 72/80/127 68/76/128 73/81/129
f 73/81/130 68/76/131 74/82/132
f 73/81/133 74/82/134 75/83/135
f 75/83/136 74/82/137 76/84/138
f 77/85/139 69/77/140 78/86/141
f 69/77/142 77/85/143 66/74/144
f 79/87/145 80/88/146 81/89/147
f 80/88/148 79/87/149 82/90/150
f 83/91/151 84/92/152 85/93/153
f 84/92/154 83/91/155 86/94/156
f 87/95/157 88/96/158 89/97/159
f 88/96/160 87/95/161 90/98/162
f 90/98/163 87/95/164 91/99/165
f 92/100/166 93/101/167 94/102/168
f 93/101/169 92/100/170 95/103/171
f 96/104/172 97/105/173 98/106/174
f 97/105/175 96/104/176 99/107/177
f 97/105/178 99/107/179 100/108/180
f 99/107/181 96/104/182 101/109/183
f 101/109/184 96/104/185 102/110/186
f 102/110/187 96/104/188 103/111/189
f 104/112/190 105/113/191 106/114/192
f 105/115/193 104/112/194 107/116/195
f 108/117/196 109/118/197 110/119/198
f 109/118/199 108/117/200 111/120/201
f 109/118/202 111/120/203 112/121/204
f 112/121/205 111/120/206 113/122/207
f 114/123/208 115/124/209 116/125/210
f 115/126/211 114/123/212 117/127/213
